<svg data-v-fde0c5aa="" xmlns="http://www.w3.org/2000/svg" viewBox="0 0 300 300" class="icon"><rect data-v-fde0c5aa="" fill="transparent" x="0" y="0" width="300px" height="300px" class="logo-background-square"></rect><!----><defs data-v-fde0c5aa=""><linearGradient data-v-fde0c5aa="" gradientTransform="rotate(25)" id="60c8851e-41a0-45e5-9106-dacb906f889e" x1="0%" y1="0%" x2="100%" y2="0%"><stop data-v-fde0c5aa="" offset="0%" stop-color="#eb3812" stop-opacity="1"></stop><stop data-v-fde0c5aa="" offset="100%" stop-color="#f05f40" stop-opacity="1"></stop></linearGradient></defs><g data-v-fde0c5aa="" id="0571f889-1c5d-4f8e-b2df-f37df7751537" fill="url(#60c8851e-41a0-45e5-9106-dacb906f889e)" stroke="none" transform="matrix(3,0,0,3,1,1)"><path d="M100 46.667c0-7.362-5.971-13.333-13.334-13.333l-.021.001c-.438-9.274-8.465-16.668-18.312-16.668-8.635 0-15.871 5.688-17.812 13.342a9.155 9.155 0 0 0-6.095 2.604 25.764 25.764 0 0 0-6.928-.946c-14.244 0-25.832 11.59-25.832 25.834 0 .289.008.576.018.863C5.17 58.786 0 64.216 0 70.834c0 6.611 5.16 12.039 11.666 12.469v.031h66.666C84.768 83.334 90 78.102 90 71.668c0-5.895-4.395-10.775-10.076-11.557l-.014-.11h6.756c7.363 0 13.334-5.97 13.334-13.334zM86.666 71.668c0 4.579-3.713 8.309-8.287 8.333H12.24l-.354-.022c-4.799-.316-8.555-4.334-8.555-9.145 0-4.816 3.764-8.833 8.564-9.145l3.223-.209-.105-3.229c-.01-.25-.016-.501-.016-.753 0-12.406 10.094-22.5 22.5-22.5 8.283 0 15.881 4.548 19.823 11.869l1.154 2.144 2.396-.447a13.28 13.28 0 0 1 11.457 3.275 13.291 13.291 0 0 1 4.274 8.581l.246 2.637 2.619.357c4.106.565 7.2 4.111 7.2 8.254z"></path></g><!----></svg>